<svg width="483" height="122" viewBox="0 0 483 122" fill="none" xmlns="http://www.w3.org/2000/svg">
<g filter="url(#filter0_d_1139_211)">
<path d="M50.3333 57C50.3333 62.891 55.109 67.6667 61 67.6667C66.891 67.6667 71.6667 62.891 71.6667 57C71.6667 51.109 66.891 46.3333 61 46.3333C55.109 46.3333 50.3333 51.109 50.3333 57ZM411.333 57C411.333 62.891 416.109 67.6667 422 67.6667C427.891 67.6667 432.667 62.891 432.667 57C432.667 51.109 427.891 46.3333 422 46.3333C416.109 46.3333 411.333 51.109 411.333 57ZM61 59H422V55H61V59Z" fill="#11675C" fill-opacity="0.26"/>
</g>
<defs>
<filter id="filter0_d_1139_211" x="0.333496" y="0.333496" width="482.333" height="121.333" filterUnits="userSpaceOnUse" color-interpolation-filters="sRGB">
<feFlood flood-opacity="0" result="BackgroundImageFix"/>
<feColorMatrix in="SourceAlpha" type="matrix" values="0 0 0 0 0 0 0 0 0 0 0 0 0 0 0 0 0 0 127 0" result="hardAlpha"/>
<feOffset dy="4"/>
<feGaussianBlur stdDeviation="25"/>
<feComposite in2="hardAlpha" operator="out"/>
<feColorMatrix type="matrix" values="0 0 0 0 0 0 0 0 0 0 0 0 0 0 0 0 0 0 0.25 0"/>
<feBlend mode="normal" in2="BackgroundImageFix" result="effect1_dropShadow_1139_211"/>
<feBlend mode="normal" in="SourceGraphic" in2="effect1_dropShadow_1139_211" result="shape"/>
</filter>
</defs>
</svg>
