<svg width="181" height="33" viewBox="0 0 181 33" fill="none" xmlns="http://www.w3.org/2000/svg">
<path d="M5.126 21.096H10.054V24H1.364V8.556H5.126V21.096ZM23.4204 17.664C23.4204 18.016 23.3984 18.3827 23.3544 18.764H14.8404C14.899 19.5267 15.141 20.1133 15.5664 20.524C16.0064 20.92 16.5417 21.118 17.1724 21.118C18.111 21.118 18.7637 20.722 19.1304 19.93H23.1344C22.929 20.7367 22.555 21.4627 22.0124 22.108C21.4844 22.7533 20.817 23.2593 20.0104 23.626C19.2037 23.9927 18.3017 24.176 17.3044 24.176C16.1017 24.176 15.031 23.9193 14.0924 23.406C13.1537 22.8927 12.4204 22.1593 11.8924 21.206C11.3644 20.2527 11.1004 19.138 11.1004 17.862C11.1004 16.586 11.357 15.4713 11.8704 14.518C12.3984 13.5647 13.1317 12.8313 14.0704 12.318C15.009 11.8047 16.087 11.548 17.3044 11.548C18.4924 11.548 19.5484 11.7973 20.4724 12.296C21.3964 12.7947 22.115 13.506 22.6284 14.43C23.1564 15.354 23.4204 16.432 23.4204 17.664ZM19.5704 16.674C19.5704 16.0287 19.3504 15.5153 18.9104 15.134C18.4704 14.7527 17.9204 14.562 17.2604 14.562C16.6297 14.562 16.0944 14.7453 15.6544 15.112C15.229 15.4787 14.965 15.9993 14.8624 16.674H19.5704ZM24.657 17.84C24.657 16.5787 24.8917 15.4713 25.361 14.518C25.845 13.5647 26.4977 12.8313 27.319 12.318C28.1403 11.8047 29.057 11.548 30.069 11.548C30.9343 11.548 31.6897 11.724 32.335 12.076C32.995 12.428 33.501 12.89 33.853 13.462V11.724H37.615V24H33.853V22.262C33.4863 22.834 32.973 23.296 32.313 23.648C31.6677 24 30.9123 24.176 30.047 24.176C29.0497 24.176 28.1403 23.9193 27.319 23.406C26.4977 22.878 25.845 22.1373 25.361 21.184C24.8917 20.216 24.657 19.1013 24.657 17.84ZM33.853 17.862C33.853 16.9233 33.589 16.1827 33.061 15.64C32.5477 15.0973 31.917 14.826 31.169 14.826C30.421 14.826 29.783 15.0973 29.255 15.64C28.7417 16.168 28.485 16.9013 28.485 17.84C28.485 18.7787 28.7417 19.5267 29.255 20.084C29.783 20.6267 30.421 20.898 31.169 20.898C31.917 20.898 32.5477 20.6267 33.061 20.084C33.589 19.5413 33.853 18.8007 33.853 17.862ZM44.0987 13.77C44.5387 13.0953 45.0887 12.5673 45.7487 12.186C46.4087 11.79 47.142 11.592 47.9487 11.592V15.574H46.9147C45.976 15.574 45.272 15.7793 44.8027 16.19C44.3333 16.586 44.0987 17.29 44.0987 18.302V24H40.3367V11.724H44.0987V13.77ZM57.2268 11.592C58.6641 11.592 59.8081 12.0613 60.6588 13C61.5241 13.924 61.9568 15.2 61.9568 16.828V24H58.2168V17.334C58.2168 16.5127 58.0041 15.8747 57.5788 15.42C57.1535 14.9653 56.5815 14.738 55.8628 14.738C55.1441 14.738 54.5721 14.9653 54.1468 15.42C53.7215 15.8747 53.5088 16.5127 53.5088 17.334V24H49.7468V11.724H53.5088V13.352C53.8901 12.8093 54.4035 12.384 55.0488 12.076C55.6941 11.7533 56.4201 11.592 57.2268 11.592ZM84.8971 11.592C86.4225 11.592 87.6325 12.054 88.5271 12.978C89.4365 13.902 89.8911 15.1853 89.8911 16.828V24H86.1511V17.334C86.1511 16.542 85.9385 15.9333 85.5131 15.508C85.1025 15.068 84.5305 14.848 83.7971 14.848C83.0638 14.848 82.4845 15.068 82.0591 15.508C81.6485 15.9333 81.4431 16.542 81.4431 17.334V24H77.7031V17.334C77.7031 16.542 77.4905 15.9333 77.0651 15.508C76.6545 15.068 76.0825 14.848 75.3491 14.848C74.6158 14.848 74.0365 15.068 73.6111 15.508C73.2005 15.9333 72.9951 16.542 72.9951 17.334V24H69.2331V11.724H72.9951V13.264C73.3765 12.7507 73.8751 12.3473 74.4911 12.054C75.1071 11.746 75.8038 11.592 76.5811 11.592C77.5051 11.592 78.3265 11.79 79.0451 12.186C79.7785 12.582 80.3505 13.1467 80.7611 13.88C81.1865 13.2053 81.7658 12.6553 82.4991 12.23C83.2325 11.8047 84.0318 11.592 84.8971 11.592ZM98.1102 24.176C96.9075 24.176 95.8222 23.9193 94.8542 23.406C93.9009 22.8927 93.1455 22.1593 92.5882 21.206C92.0455 20.2527 91.7742 19.138 91.7742 17.862C91.7742 16.6007 92.0529 15.4933 92.6102 14.54C93.1675 13.572 93.9302 12.8313 94.8982 12.318C95.8662 11.8047 96.9515 11.548 98.1542 11.548C99.3569 11.548 100.442 11.8047 101.41 12.318C102.378 12.8313 103.141 13.572 103.698 14.54C104.256 15.4933 104.534 16.6007 104.534 17.862C104.534 19.1233 104.248 20.238 103.676 21.206C103.119 22.1593 102.349 22.8927 101.366 23.406C100.398 23.9193 99.3129 24.176 98.1102 24.176ZM98.1102 20.92C98.8289 20.92 99.4375 20.656 99.9362 20.128C100.45 19.6 100.706 18.8447 100.706 17.862C100.706 16.8793 100.457 16.124 99.9582 15.596C99.4742 15.068 98.8729 14.804 98.1542 14.804C97.4209 14.804 96.8122 15.068 96.3282 15.596C95.8442 16.1093 95.6022 16.8647 95.6022 17.862C95.6022 18.8447 95.8369 19.6 96.3062 20.128C96.7902 20.656 97.3915 20.92 98.1102 20.92ZM110.292 13.77C110.732 13.0953 111.282 12.5673 111.942 12.186C112.602 11.79 113.335 11.592 114.142 11.592V15.574H113.108C112.169 15.574 111.465 15.7793 110.996 16.19C110.527 16.586 110.292 17.29 110.292 18.302V24H106.53V11.724H110.292V13.77ZM127.512 17.664C127.512 18.016 127.49 18.3827 127.446 18.764H118.932C118.991 19.5267 119.233 20.1133 119.658 20.524C120.098 20.92 120.634 21.118 121.264 21.118C122.203 21.118 122.856 20.722 123.222 19.93H127.226C127.021 20.7367 126.647 21.4627 126.104 22.108C125.576 22.7533 124.909 23.2593 124.102 23.626C123.296 23.9927 122.394 24.176 121.396 24.176C120.194 24.176 119.123 23.9193 118.184 23.406C117.246 22.8927 116.512 22.1593 115.984 21.206C115.456 20.2527 115.192 19.138 115.192 17.862C115.192 16.586 115.449 15.4713 115.962 14.518C116.49 13.5647 117.224 12.8313 118.162 12.318C119.101 11.8047 120.179 11.548 121.396 11.548C122.584 11.548 123.64 11.7973 124.564 12.296C125.488 12.7947 126.207 13.506 126.72 14.43C127.248 15.354 127.512 16.432 127.512 17.664ZM123.662 16.674C123.662 16.0287 123.442 15.5153 123.002 15.134C122.562 14.7527 122.012 14.562 121.352 14.562C120.722 14.562 120.186 14.7453 119.746 15.112C119.321 15.4787 119.057 15.9993 118.954 16.674H123.662Z" fill="#D95D37"/>
<path d="M180.707 17.7071C181.098 17.3166 181.098 16.6834 180.707 16.2929L174.343 9.92893C173.953 9.53841 173.319 9.53841 172.929 9.92893C172.538 10.3195 172.538 10.9526 172.929 11.3431L178.586 17L172.929 22.6569C172.538 23.0474 172.538 23.6805 172.929 24.0711C173.319 24.4616 173.953 24.4616 174.343 24.0711L180.707 17.7071ZM146 18H180V16H146V18Z" fill="#D95D37"/>
</svg>
